<svg width="40" height="48" viewBox="0 0 40 48" fill="none" xmlns="http://www.w3.org/2000/svg">
<g clip-path="url(#clip0)">
<path fill-rule="evenodd" clip-rule="evenodd" d="M8.97561 42.9058H32.1677C33.6493 42.9058 34.8504 41.703 34.8504 40.2194V20.0521C34.8504 19.9909 34.8484 19.93 34.8442 19.8694H23.5393C22.1634 19.8694 21.0481 18.7525 21.0481 17.3748V5.12689C20.9108 5.10521 20.7712 5.09413 20.6303 5.09413H8.97561C7.49395 5.09413 6.29283 6.29687 6.29283 7.78053V40.2194C6.29283 41.703 7.49395 42.9058 8.97561 42.9058ZM34.121 18.2106C34.2667 18.3656 34.3923 18.5361 34.4963 18.718H23.5393C22.7984 18.718 22.1979 18.1167 22.1979 17.3748V5.60041C22.3359 5.69996 22.4652 5.81315 22.5836 5.93909L34.121 18.2106ZM32.1677 44.0571H8.97561C6.85896 44.0571 5.14307 42.3389 5.14307 40.2194V7.78053C5.14307 5.66101 6.85895 3.94281 8.97561 3.94281H20.6303C21.6869 3.94281 22.6966 4.37958 23.4208 5.1499L34.9582 17.4215C35.6275 18.1334 36.0002 19.0743 36.0002 20.0521V40.2194C36.0002 42.3389 34.2843 44.0571 32.1677 44.0571ZM21.1502 25.5428C21.1502 25.2233 20.8912 24.9642 20.5716 24.9642C20.2521 24.9642 19.9931 25.2233 19.9931 25.5428V28.8214H16.7145C16.395 28.8214 16.1359 29.0804 16.1359 29.4C16.1359 29.7195 16.395 29.9785 16.7145 29.9785H19.9931V33.2571C19.9931 33.5766 20.2521 33.8357 20.5716 33.8357C20.8912 33.8357 21.1502 33.5766 21.1502 33.2571V29.9785H24.4288C24.7483 29.9785 25.0074 29.7195 25.0074 29.4C25.0074 29.0804 24.7483 28.8214 24.4288 28.8214H21.1502V25.5428Z" fill="#CACFDD"></path>
</g>
<defs>
<clipPath id="clip0">
<rect width="40" height="48" fill="white"></rect>
</clipPath>
</defs>
</svg>